<svg xmlns="http://www.w3.org/2000/svg" xmlns:xlink="http://www.w3.org/1999/xlink" width="497" zoomAndPan="magnify" viewBox="0 0 372.75 121.500001" height="162" preserveAspectRatio="xMidYMid meet" version="1.0"><defs><g/><clipPath id="ccd543c71e"><path d="M 0.640625 0 L 363 0 L 363 121.003906 L 0.640625 121.003906 Z M 0.640625 0 " clip-rule="nonzero"/></clipPath><clipPath id="060daf49c2"><path d="M 3 0.140625 L 48 0.140625 L 48 59 L 3 59 Z M 3 0.140625 " clip-rule="nonzero"/></clipPath><clipPath id="97cc78073e"><rect x="0" width="280" y="0" height="72"/></clipPath><clipPath id="30ee1d53f1"><path d="M 85 91 L 362.75 91 L 362.75 104 L 85 104 Z M 85 91 " clip-rule="nonzero"/></clipPath><clipPath id="8640150dfa"><path d="M 270 1 L 277.75 1 L 277.75 10 L 270 10 Z M 270 1 " clip-rule="nonzero"/></clipPath><clipPath id="f1e1b370fa"><rect x="0" width="278" y="0" height="13"/></clipPath><clipPath id="b2412efdda"><path d="M 10 4 L 22 4 L 22 18.707031 L 10 18.707031 Z M 10 4 " clip-rule="nonzero"/></clipPath><clipPath id="4194d5b0a1"><path d="M 59 0.542969 L 63 0.542969 L 63 15 L 59 15 Z M 59 0.542969 " clip-rule="nonzero"/></clipPath><clipPath id="3cf74cad01"><path d="M 63 4 L 74.835938 4 L 74.835938 16 L 63 16 Z M 63 4 " clip-rule="nonzero"/></clipPath><clipPath id="1838ca48f9"><rect x="0" width="75" y="0" height="19"/></clipPath><clipPath id="40db266563"><path d="M 0.640625 73 L 48 73 L 48 121 L 0.640625 121 Z M 0.640625 73 " clip-rule="nonzero"/></clipPath><clipPath id="3197dc960a"><path d="M 0.640625 97.332031 L 24.097656 73.875 L 47.554688 97.332031 L 24.097656 120.789062 Z M 0.640625 97.332031 " clip-rule="nonzero"/></clipPath><clipPath id="d21dc0d770"><path d="M 0.640625 97.332031 L 24.214844 73.757812 L 47.789062 97.332031 L 24.214844 120.90625 Z M 0.640625 97.332031 " clip-rule="nonzero"/></clipPath><clipPath id="a2b9b92f88"><path d="M 25 48 L 73 48 L 73 96 L 25 96 Z M 25 48 " clip-rule="nonzero"/></clipPath><clipPath id="cb2f572d3b"><path d="M 25.730469 72.242188 L 49.308594 48.664062 L 72.890625 72.242188 L 49.308594 95.824219 Z M 25.730469 72.242188 " clip-rule="nonzero"/></clipPath><clipPath id="a47536e591"><path d="M 0.496094 0.519531 L 48 0.519531 L 48 47.84375 L 0.496094 47.84375 Z M 0.496094 0.519531 " clip-rule="nonzero"/></clipPath><clipPath id="fe76a19cf8"><path d="M 0.730469 24.242188 L 24.308594 0.664062 L 47.890625 24.242188 L 24.308594 47.824219 Z M 0.730469 24.242188 " clip-rule="nonzero"/></clipPath><clipPath id="1cccf0ddd9"><rect x="0" width="48" y="0" height="48"/></clipPath><clipPath id="0f1adc02c1"><path d="M 27 0 L 75 0 L 75 48 L 27 48 Z M 27 0 " clip-rule="nonzero"/></clipPath><clipPath id="2f046400f0"><path d="M 27.238281 23.574219 L 50.695312 0.117188 L 74.148438 23.574219 L 50.695312 47.03125 Z M 27.238281 23.574219 " clip-rule="nonzero"/></clipPath><clipPath id="f07e7b4dd7"><path d="M 27.238281 23.574219 L 50.808594 0.00390625 L 74.382812 23.574219 L 50.808594 47.148438 Z M 27.238281 23.574219 " clip-rule="nonzero"/></clipPath><clipPath id="b26939d489"><path d="M 2 25 L 50 25 L 50 73 L 2 73 Z M 2 25 " clip-rule="nonzero"/></clipPath><clipPath id="0c134eaf4a"><path d="M 2.148438 48.664062 L 25.730469 25.082031 L 49.308594 48.664062 L 25.730469 72.242188 Z M 2.148438 48.664062 " clip-rule="nonzero"/></clipPath><clipPath id="00dd7e34c4"><path d="M 0.0742188 0 L 47.398438 0 L 47.398438 47.421875 L 0.0742188 47.421875 Z M 0.0742188 0 " clip-rule="nonzero"/></clipPath><clipPath id="26d66601b6"><path d="M 0.148438 23.664062 L 23.730469 0.0820312 L 47.308594 23.664062 L 23.730469 47.242188 Z M 0.148438 23.664062 " clip-rule="nonzero"/></clipPath><clipPath id="c7f67c1a42"><rect x="0" width="48" y="0" height="48"/></clipPath><clipPath id="7247621d1e"><rect x="0" width="363" y="0" height="122"/></clipPath></defs><g clip-path="url(#ccd543c71e)"><g transform="matrix(1, 0, 0, 1, 0, -0.00000000000000014)"><g clip-path="url(#7247621d1e)"><g transform="matrix(1, 0, 0, 1, 82, 24)"><g clip-path="url(#97cc78073e)"><g clip-path="url(#060daf49c2)"><g fill="#ffffff" fill-opacity="1"><g transform="translate(0.488034, 56.919131)"><g><path d="M 25 1.25 C 21.050781 1.25 17.664062 0.738281 14.84375 -0.28125 C 12.03125 -1.300781 9.734375 -2.660156 7.953125 -4.359375 C 6.171875 -6.066406 4.851562 -7.96875 4 -10.0625 C 3.15625 -12.15625 2.734375 -14.273438 2.734375 -16.421875 L 12.765625 -16.421875 C 12.765625 -14.734375 13.238281 -13.191406 14.1875 -11.796875 C 15.144531 -10.398438 16.535156 -9.285156 18.359375 -8.453125 C 20.179688 -7.617188 22.382812 -7.203125 24.96875 -7.203125 C 33.09375 -7.203125 37.15625 -9.925781 37.15625 -15.375 C 37.15625 -17.070312 36.628906 -18.445312 35.578125 -19.5 C 34.535156 -20.5625 33.078125 -21.421875 31.203125 -22.078125 C 29.328125 -22.734375 27.113281 -23.304688 24.5625 -23.796875 C 22.738281 -24.171875 20.863281 -24.625 18.9375 -25.15625 C 17.019531 -25.695312 15.179688 -26.367188 13.421875 -27.171875 C 11.671875 -27.984375 10.097656 -28.976562 8.703125 -30.15625 C 7.304688 -31.332031 6.195312 -32.753906 5.375 -34.421875 C 4.550781 -36.085938 4.140625 -38.0625 4.140625 -40.34375 C 4.140625 -43.320312 4.859375 -45.988281 6.296875 -48.34375 C 7.734375 -50.707031 9.96875 -52.582031 13 -53.96875 C 16.03125 -55.351562 19.910156 -56.046875 24.640625 -56.046875 C 29.203125 -56.046875 33.003906 -55.359375 36.046875 -53.984375 C 39.097656 -52.617188 41.394531 -50.703125 42.9375 -48.234375 C 44.476562 -45.765625 45.25 -42.890625 45.25 -39.609375 L 35.234375 -39.609375 C 35.234375 -41.035156 34.851562 -42.328125 34.09375 -43.484375 C 33.34375 -44.640625 32.179688 -45.554688 30.609375 -46.234375 C 29.046875 -46.921875 27.015625 -47.265625 24.515625 -47.265625 C 22.453125 -47.265625 20.75 -47.066406 19.40625 -46.671875 C 18.0625 -46.285156 17.003906 -45.753906 16.234375 -45.078125 C 15.472656 -44.410156 14.9375 -43.660156 14.625 -42.828125 C 14.320312 -42.003906 14.171875 -41.160156 14.171875 -40.296875 C 14.171875 -38.015625 15.3125 -36.269531 17.59375 -35.0625 C 19.875 -33.851562 23.3125 -32.875 27.90625 -32.125 C 30.425781 -31.664062 32.847656 -31.039062 35.171875 -30.25 C 37.492188 -29.457031 39.566406 -28.425781 41.390625 -27.15625 C 43.210938 -25.882812 44.65625 -24.28125 45.71875 -22.34375 C 46.78125 -20.414062 47.3125 -18.082031 47.3125 -15.34375 C 47.3125 -11.800781 46.390625 -8.789062 44.546875 -6.3125 C 42.710938 -3.84375 40.125 -1.960938 36.78125 -0.671875 C 33.4375 0.609375 29.507812 1.25 25 1.25 Z M 25 1.25 "/></g></g></g></g><g fill="#ffffff" fill-opacity="1"><g transform="translate(46.860348, 56.919131)"><g><path d="M 16.546875 0 L 6.515625 0 L 6.515625 -54.75 L 29.59375 -54.75 C 32.351562 -54.75 34.894531 -54.289062 37.21875 -53.375 C 39.539062 -52.46875 41.546875 -51.1875 43.234375 -49.53125 C 44.929688 -47.882812 46.25 -45.929688 47.1875 -43.671875 C 48.125 -41.421875 48.59375 -38.96875 48.59375 -36.3125 C 48.59375 -33.5 48.128906 -30.9375 47.203125 -28.625 C 46.273438 -26.3125 44.972656 -24.320312 43.296875 -22.65625 C 41.617188 -21 39.625 -19.71875 37.3125 -18.8125 C 35.007812 -17.914062 32.488281 -17.46875 29.75 -17.46875 L 16.546875 -17.46875 Z M 16.546875 -45.8125 L 16.546875 -26.40625 L 29.265625 -26.40625 C 31.015625 -26.40625 32.59375 -26.84375 34 -27.71875 C 35.40625 -28.59375 36.515625 -29.773438 37.328125 -31.265625 C 38.148438 -32.753906 38.5625 -34.4375 38.5625 -36.3125 C 38.5625 -37.976562 38.144531 -39.535156 37.3125 -40.984375 C 36.488281 -42.429688 35.367188 -43.597656 33.953125 -44.484375 C 32.546875 -45.367188 30.957031 -45.8125 29.1875 -45.8125 Z M 16.546875 -45.8125 "/></g></g></g><g fill="#ffffff" fill-opacity="1"><g transform="translate(93.232663, 56.919131)"><g><path d="M 41.265625 0 L 6.515625 0 L 6.515625 -54.75 L 16.546875 -54.75 L 16.546875 -8.984375 L 41.265625 -8.984375 Z M 41.265625 0 "/></g></g></g><g fill="#ffffff" fill-opacity="1"><g transform="translate(132.640884, 56.919131)"><g><path d="M 44.40625 0 L 6.515625 0 L 6.515625 -54.75 L 44.046875 -54.75 L 44.046875 -45.78125 L 16.546875 -45.78125 L 16.546875 -32.046875 L 40.296875 -32.046875 L 40.296875 -23.59375 L 16.546875 -23.59375 L 16.546875 -8.984375 L 44.40625 -8.984375 Z M 44.40625 0 "/></g></g></g><g fill="#ffffff" fill-opacity="1"><g transform="translate(176.195358, 56.919131)"><g><path d="M 16.546875 0 L 6.515625 0 L 6.515625 -54.75 L 15.140625 -54.75 L 44.96875 -16.421875 L 44.96875 -54.75 L 54.953125 -54.75 L 54.953125 0 L 46.375 0 L 16.546875 -38.28125 Z M 16.546875 0 "/></g></g></g><g fill="#ffffff" fill-opacity="1"><g transform="translate(234.20133, 56.919131)"><g><path d="M 28.015625 0 L 18.03125 0 L 18.03125 -45.8125 L 1.734375 -45.8125 L 1.734375 -54.75 L 44.328125 -54.75 L 44.328125 -45.8125 L 28.015625 -45.8125 Z M 28.015625 0 "/></g></g></g></g></g><g clip-path="url(#30ee1d53f1)"><g transform="matrix(1, 0, 0, 1, 85, 91)"><g clip-path="url(#f1e1b370fa)"><g fill="#ffffff" fill-opacity="1"><g transform="translate(0.591221, 9.961604)"><g><path d="M 3.765625 0.1875 C 3.171875 0.1875 2.660156 0.113281 2.234375 -0.03125 C 1.804688 -0.1875 1.457031 -0.394531 1.1875 -0.65625 C 0.925781 -0.914062 0.726562 -1.203125 0.59375 -1.515625 C 0.46875 -1.828125 0.40625 -2.144531 0.40625 -2.46875 L 1.921875 -2.46875 C 1.921875 -2.21875 1.988281 -1.984375 2.125 -1.765625 C 2.269531 -1.554688 2.476562 -1.390625 2.75 -1.265625 C 3.03125 -1.140625 3.363281 -1.078125 3.75 -1.078125 C 4.976562 -1.078125 5.59375 -1.488281 5.59375 -2.3125 C 5.59375 -2.570312 5.515625 -2.78125 5.359375 -2.9375 C 5.203125 -3.09375 4.976562 -3.21875 4.6875 -3.3125 C 4.40625 -3.414062 4.070312 -3.503906 3.6875 -3.578125 C 3.414062 -3.640625 3.132812 -3.707031 2.84375 -3.78125 C 2.5625 -3.863281 2.285156 -3.960938 2.015625 -4.078125 C 1.753906 -4.203125 1.519531 -4.351562 1.3125 -4.53125 C 1.101562 -4.707031 0.9375 -4.921875 0.8125 -5.171875 C 0.6875 -5.429688 0.625 -5.726562 0.625 -6.0625 C 0.625 -6.519531 0.726562 -6.925781 0.9375 -7.28125 C 1.15625 -7.632812 1.492188 -7.914062 1.953125 -8.125 C 2.410156 -8.332031 2.992188 -8.4375 3.703125 -8.4375 C 4.390625 -8.4375 4.960938 -8.332031 5.421875 -8.125 C 5.878906 -7.914062 6.222656 -7.625 6.453125 -7.25 C 6.691406 -6.882812 6.8125 -6.453125 6.8125 -5.953125 L 5.296875 -5.953125 C 5.296875 -6.171875 5.238281 -6.363281 5.125 -6.53125 C 5.019531 -6.707031 4.847656 -6.847656 4.609375 -6.953125 C 4.367188 -7.054688 4.0625 -7.109375 3.6875 -7.109375 C 3.375 -7.109375 3.113281 -7.078125 2.90625 -7.015625 C 2.707031 -6.960938 2.550781 -6.882812 2.4375 -6.78125 C 2.320312 -6.6875 2.238281 -6.570312 2.1875 -6.4375 C 2.144531 -6.3125 2.125 -6.1875 2.125 -6.0625 C 2.125 -5.71875 2.296875 -5.453125 2.640625 -5.265625 C 2.984375 -5.085938 3.503906 -4.941406 4.203125 -4.828125 C 4.578125 -4.765625 4.9375 -4.671875 5.28125 -4.546875 C 5.632812 -4.429688 5.945312 -4.273438 6.21875 -4.078125 C 6.5 -3.890625 6.71875 -3.648438 6.875 -3.359375 C 7.039062 -3.066406 7.125 -2.71875 7.125 -2.3125 C 7.125 -1.78125 6.984375 -1.328125 6.703125 -0.953125 C 6.421875 -0.578125 6.03125 -0.289062 5.53125 -0.09375 C 5.03125 0.09375 4.441406 0.1875 3.765625 0.1875 Z M 3.765625 0.1875 "/></g></g></g><g fill="#ffffff" fill-opacity="1"><g transform="translate(7.568945, 9.961604)"><g><path d="M 4.84375 0.171875 C 4.351562 0.171875 3.882812 0.101562 3.4375 -0.03125 C 3 -0.175781 2.59375 -0.378906 2.21875 -0.640625 C 1.851562 -0.910156 1.53125 -1.222656 1.25 -1.578125 C 0.976562 -1.941406 0.769531 -2.335938 0.625 -2.765625 C 0.476562 -3.203125 0.40625 -3.65625 0.40625 -4.125 C 0.40625 -4.613281 0.476562 -5.070312 0.625 -5.5 C 0.769531 -5.925781 0.976562 -6.316406 1.25 -6.671875 C 1.53125 -7.035156 1.851562 -7.347656 2.21875 -7.609375 C 2.59375 -7.867188 3 -8.070312 3.4375 -8.21875 C 3.882812 -8.363281 4.351562 -8.4375 4.84375 -8.4375 C 5.332031 -8.4375 5.796875 -8.363281 6.234375 -8.21875 C 6.679688 -8.070312 7.085938 -7.867188 7.453125 -7.609375 C 7.828125 -7.347656 8.148438 -7.035156 8.421875 -6.671875 C 8.703125 -6.316406 8.914062 -5.925781 9.0625 -5.5 C 9.207031 -5.070312 9.28125 -4.613281 9.28125 -4.125 C 9.28125 -3.65625 9.207031 -3.203125 9.0625 -2.765625 C 8.914062 -2.335938 8.703125 -1.941406 8.421875 -1.578125 C 8.148438 -1.222656 7.828125 -0.910156 7.453125 -0.640625 C 7.085938 -0.378906 6.679688 -0.175781 6.234375 -0.03125 C 5.796875 0.101562 5.332031 0.171875 4.84375 0.171875 Z M 4.84375 -1.21875 C 5.25 -1.21875 5.628906 -1.285156 5.984375 -1.421875 C 6.335938 -1.566406 6.648438 -1.769531 6.921875 -2.03125 C 7.191406 -2.300781 7.398438 -2.613281 7.546875 -2.96875 C 7.703125 -3.320312 7.78125 -3.707031 7.78125 -4.125 C 7.78125 -4.539062 7.703125 -4.925781 7.546875 -5.28125 C 7.398438 -5.644531 7.191406 -5.957031 6.921875 -6.21875 C 6.648438 -6.476562 6.335938 -6.679688 5.984375 -6.828125 C 5.628906 -6.972656 5.25 -7.046875 4.84375 -7.046875 C 4.4375 -7.046875 4.054688 -6.972656 3.703125 -6.828125 C 3.347656 -6.679688 3.035156 -6.476562 2.765625 -6.21875 C 2.492188 -5.957031 2.28125 -5.644531 2.125 -5.28125 C 1.976562 -4.925781 1.90625 -4.539062 1.90625 -4.125 C 1.90625 -3.707031 1.976562 -3.320312 2.125 -2.96875 C 2.28125 -2.613281 2.492188 -2.300781 2.765625 -2.03125 C 3.035156 -1.769531 3.347656 -1.566406 3.703125 -1.421875 C 4.054688 -1.285156 4.4375 -1.21875 4.84375 -1.21875 Z M 4.84375 -1.21875 "/></g></g></g><g fill="#ffffff" fill-opacity="1"><g transform="translate(16.73347, 9.961604)"><g><path d="M 2.484375 0 L 0.984375 0 L 0.984375 -8.234375 L 6.625 -8.234375 L 6.625 -6.890625 L 2.484375 -6.890625 L 2.484375 -4.5 L 6.0625 -4.5 L 6.0625 -3.234375 L 2.484375 -3.234375 Z M 2.484375 0 "/></g></g></g><g fill="#ffffff" fill-opacity="1"><g transform="translate(23.19024, 9.961604)"><g><path d="M 4.21875 0 L 2.71875 0 L 2.71875 -6.890625 L 0.265625 -6.890625 L 0.265625 -8.234375 L 6.671875 -8.234375 L 6.671875 -6.890625 L 4.21875 -6.890625 Z M 4.21875 0 "/></g></g></g><g fill="#ffffff" fill-opacity="1"><g transform="translate(29.598549, 9.961604)"><g><path d="M 4.265625 0 L 2.8125 0 L 0.09375 -8.25 L 1.6875 -8.25 L 3.421875 -2.671875 L 3.59375 -2.015625 L 3.609375 -2.015625 L 3.734375 -2.6875 L 5.375 -8.234375 L 6.96875 -8.234375 L 8.609375 -2.703125 L 8.734375 -2.015625 L 8.765625 -2.015625 L 8.921875 -2.75 L 10.65625 -8.25 L 12.25 -8.25 L 9.53125 0 L 8.0625 0 L 6.171875 -6.171875 Z M 4.265625 0 "/></g></g></g><g fill="#ffffff" fill-opacity="1"><g transform="translate(41.416306, 9.961604)"><g><path d="M 8.34375 0 L 6.75 0 L 6.09375 -1.59375 L 2.296875 -1.59375 L 1.640625 0 L 0.046875 0 L 3.484375 -8.25 L 4.90625 -8.25 Z M 4.140625 -6.09375 L 2.8125 -2.859375 L 5.578125 -2.859375 L 4.25 -6.09375 L 4.203125 -6.296875 L 4.1875 -6.296875 Z M 4.140625 -6.09375 "/></g></g></g><g fill="#ffffff" fill-opacity="1"><g transform="translate(49.29662, 9.961604)"><g><path d="M 2.484375 0 L 0.984375 0 L 0.984375 -8.234375 L 4.53125 -8.234375 C 4.945312 -8.234375 5.328125 -8.171875 5.671875 -8.046875 C 6.023438 -7.921875 6.328125 -7.738281 6.578125 -7.5 C 6.835938 -7.257812 7.035156 -6.972656 7.171875 -6.640625 C 7.316406 -6.316406 7.390625 -5.957031 7.390625 -5.5625 C 7.390625 -5.164062 7.320312 -4.804688 7.1875 -4.484375 C 7.050781 -4.171875 6.859375 -3.898438 6.609375 -3.671875 C 6.359375 -3.441406 6.0625 -3.269531 5.71875 -3.15625 L 7.578125 0 L 5.859375 0 L 4.21875 -2.921875 C 4.164062 -2.921875 4.113281 -2.921875 4.0625 -2.921875 C 4.007812 -2.921875 3.957031 -2.921875 3.90625 -2.921875 L 2.484375 -2.921875 Z M 2.484375 -6.890625 L 2.484375 -4.1875 L 4.484375 -4.1875 C 4.742188 -4.195312 4.976562 -4.257812 5.1875 -4.375 C 5.40625 -4.488281 5.578125 -4.644531 5.703125 -4.84375 C 5.828125 -5.050781 5.890625 -5.289062 5.890625 -5.5625 C 5.890625 -5.8125 5.828125 -6.035156 5.703125 -6.234375 C 5.578125 -6.429688 5.40625 -6.585938 5.1875 -6.703125 C 4.976562 -6.828125 4.742188 -6.890625 4.484375 -6.890625 Z M 2.484375 -6.890625 "/></g></g></g><g fill="#ffffff" fill-opacity="1"><g transform="translate(56.619633, 9.961604)"><g><path d="M 6.6875 0 L 0.984375 0 L 0.984375 -8.234375 L 6.625 -8.234375 L 6.625 -6.890625 L 2.484375 -6.890625 L 2.484375 -4.828125 L 6.0625 -4.828125 L 6.0625 -3.546875 L 2.484375 -3.546875 L 2.484375 -1.34375 L 6.6875 -1.34375 Z M 6.6875 0 "/></g></g></g><g fill="#ffffff" fill-opacity="1"><g transform="translate(63.173324, 9.961604)"><g/></g></g><g fill="#ffffff" fill-opacity="1"><g transform="translate(65.674483, 9.961604)"><g><path d="M 2.484375 0 L 0.984375 0 L 0.984375 -8.234375 L 4.453125 -8.234375 C 4.867188 -8.234375 5.25 -8.164062 5.59375 -8.03125 C 5.945312 -7.894531 6.25 -7.703125 6.5 -7.453125 C 6.757812 -7.203125 6.957031 -6.90625 7.09375 -6.5625 C 7.238281 -6.226562 7.3125 -5.863281 7.3125 -5.46875 C 7.3125 -5.039062 7.238281 -4.648438 7.09375 -4.296875 C 6.957031 -3.953125 6.765625 -3.65625 6.515625 -3.40625 C 6.265625 -3.15625 5.960938 -2.960938 5.609375 -2.828125 C 5.265625 -2.691406 4.890625 -2.625 4.484375 -2.625 L 2.484375 -2.625 Z M 2.484375 -6.890625 L 2.484375 -3.96875 L 4.40625 -3.96875 C 4.664062 -3.96875 4.898438 -4.035156 5.109375 -4.171875 C 5.328125 -4.304688 5.492188 -4.484375 5.609375 -4.703125 C 5.734375 -4.929688 5.796875 -5.1875 5.796875 -5.46875 C 5.796875 -5.71875 5.734375 -5.953125 5.609375 -6.171875 C 5.484375 -6.390625 5.316406 -6.5625 5.109375 -6.6875 C 4.898438 -6.820312 4.660156 -6.890625 4.390625 -6.890625 Z M 2.484375 -6.890625 "/></g></g></g><g fill="#ffffff" fill-opacity="1"><g transform="translate(72.652207, 9.961604)"><g><path d="M 2.484375 0 L 0.984375 0 L 0.984375 -8.234375 L 4.53125 -8.234375 C 4.945312 -8.234375 5.328125 -8.171875 5.671875 -8.046875 C 6.023438 -7.921875 6.328125 -7.738281 6.578125 -7.5 C 6.835938 -7.257812 7.035156 -6.972656 7.171875 -6.640625 C 7.316406 -6.316406 7.390625 -5.957031 7.390625 -5.5625 C 7.390625 -5.164062 7.320312 -4.804688 7.1875 -4.484375 C 7.050781 -4.171875 6.859375 -3.898438 6.609375 -3.671875 C 6.359375 -3.441406 6.0625 -3.269531 5.71875 -3.15625 L 7.578125 0 L 5.859375 0 L 4.21875 -2.921875 C 4.164062 -2.921875 4.113281 -2.921875 4.0625 -2.921875 C 4.007812 -2.921875 3.957031 -2.921875 3.90625 -2.921875 L 2.484375 -2.921875 Z M 2.484375 -6.890625 L 2.484375 -4.1875 L 4.484375 -4.1875 C 4.742188 -4.195312 4.976562 -4.257812 5.1875 -4.375 C 5.40625 -4.488281 5.578125 -4.644531 5.703125 -4.84375 C 5.828125 -5.050781 5.890625 -5.289062 5.890625 -5.5625 C 5.890625 -5.8125 5.828125 -6.035156 5.703125 -6.234375 C 5.578125 -6.429688 5.40625 -6.585938 5.1875 -6.703125 C 4.976562 -6.828125 4.742188 -6.890625 4.484375 -6.890625 Z M 2.484375 -6.890625 "/></g></g></g><g fill="#ffffff" fill-opacity="1"><g transform="translate(79.975221, 9.961604)"><g><path d="M 4.84375 0.171875 C 4.351562 0.171875 3.882812 0.101562 3.4375 -0.03125 C 3 -0.175781 2.59375 -0.378906 2.21875 -0.640625 C 1.851562 -0.910156 1.53125 -1.222656 1.25 -1.578125 C 0.976562 -1.941406 0.769531 -2.335938 0.625 -2.765625 C 0.476562 -3.203125 0.40625 -3.65625 0.40625 -4.125 C 0.40625 -4.613281 0.476562 -5.070312 0.625 -5.5 C 0.769531 -5.925781 0.976562 -6.316406 1.25 -6.671875 C 1.53125 -7.035156 1.851562 -7.347656 2.21875 -7.609375 C 2.59375 -7.867188 3 -8.070312 3.4375 -8.21875 C 3.882812 -8.363281 4.351562 -8.4375 4.84375 -8.4375 C 5.332031 -8.4375 5.796875 -8.363281 6.234375 -8.21875 C 6.679688 -8.070312 7.085938 -7.867188 7.453125 -7.609375 C 7.828125 -7.347656 8.148438 -7.035156 8.421875 -6.671875 C 8.703125 -6.316406 8.914062 -5.925781 9.0625 -5.5 C 9.207031 -5.070312 9.28125 -4.613281 9.28125 -4.125 C 9.28125 -3.65625 9.207031 -3.203125 9.0625 -2.765625 C 8.914062 -2.335938 8.703125 -1.941406 8.421875 -1.578125 C 8.148438 -1.222656 7.828125 -0.910156 7.453125 -0.640625 C 7.085938 -0.378906 6.679688 -0.175781 6.234375 -0.03125 C 5.796875 0.101562 5.332031 0.171875 4.84375 0.171875 Z M 4.84375 -1.21875 C 5.25 -1.21875 5.628906 -1.285156 5.984375 -1.421875 C 6.335938 -1.566406 6.648438 -1.769531 6.921875 -2.03125 C 7.191406 -2.300781 7.398438 -2.613281 7.546875 -2.96875 C 7.703125 -3.320312 7.78125 -3.707031 7.78125 -4.125 C 7.78125 -4.539062 7.703125 -4.925781 7.546875 -5.28125 C 7.398438 -5.644531 7.191406 -5.957031 6.921875 -6.21875 C 6.648438 -6.476562 6.335938 -6.679688 5.984375 -6.828125 C 5.628906 -6.972656 5.25 -7.046875 4.84375 -7.046875 C 4.4375 -7.046875 4.054688 -6.972656 3.703125 -6.828125 C 3.347656 -6.679688 3.035156 -6.476562 2.765625 -6.21875 C 2.492188 -5.957031 2.28125 -5.644531 2.125 -5.28125 C 1.976562 -4.925781 1.90625 -4.539062 1.90625 -4.125 C 1.90625 -3.707031 1.976562 -3.320312 2.125 -2.96875 C 2.28125 -2.613281 2.492188 -2.300781 2.765625 -2.03125 C 3.035156 -1.769531 3.347656 -1.566406 3.703125 -1.421875 C 4.054688 -1.285156 4.4375 -1.21875 4.84375 -1.21875 Z M 4.84375 -1.21875 "/></g></g></g><g fill="#ffffff" fill-opacity="1"><g transform="translate(89.139746, 9.961604)"><g><path d="M 4.171875 0 L 0.984375 0 L 0.984375 -8.234375 L 4.15625 -8.234375 C 4.8125 -8.234375 5.40625 -8.132812 5.9375 -7.9375 C 6.476562 -7.75 6.941406 -7.472656 7.328125 -7.109375 C 7.710938 -6.742188 8.007812 -6.304688 8.21875 -5.796875 C 8.425781 -5.296875 8.53125 -4.738281 8.53125 -4.125 C 8.53125 -3.507812 8.425781 -2.945312 8.21875 -2.4375 C 8.007812 -1.925781 7.710938 -1.488281 7.328125 -1.125 C 6.953125 -0.769531 6.492188 -0.492188 5.953125 -0.296875 C 5.421875 -0.0976562 4.828125 0 4.171875 0 Z M 2.46875 -6.90625 L 2.46875 -1.34375 L 4.125 -1.34375 C 4.726562 -1.34375 5.242188 -1.453125 5.671875 -1.671875 C 6.109375 -1.898438 6.441406 -2.21875 6.671875 -2.625 C 6.898438 -3.039062 7.015625 -3.53125 7.015625 -4.09375 C 7.015625 -4.65625 6.898438 -5.144531 6.671875 -5.5625 C 6.453125 -5.988281 6.125 -6.316406 5.6875 -6.546875 C 5.257812 -6.785156 4.734375 -6.90625 4.109375 -6.90625 Z M 2.46875 -6.90625 "/></g></g></g><g fill="#ffffff" fill-opacity="1"><g transform="translate(97.55918, 9.961604)"><g><path d="M 4.359375 0.1875 C 3.859375 0.1875 3.394531 0.109375 2.96875 -0.046875 C 2.539062 -0.210938 2.164062 -0.441406 1.84375 -0.734375 C 1.53125 -1.023438 1.285156 -1.378906 1.109375 -1.796875 C 0.929688 -2.210938 0.84375 -2.675781 0.84375 -3.1875 L 0.84375 -8.234375 L 2.34375 -8.234375 L 2.34375 -3.296875 C 2.34375 -2.910156 2.421875 -2.554688 2.578125 -2.234375 C 2.734375 -1.921875 2.957031 -1.671875 3.25 -1.484375 C 3.550781 -1.296875 3.921875 -1.203125 4.359375 -1.203125 C 4.773438 -1.203125 5.132812 -1.289062 5.4375 -1.46875 C 5.738281 -1.65625 5.96875 -1.90625 6.125 -2.21875 C 6.28125 -2.539062 6.359375 -2.898438 6.359375 -3.296875 L 6.359375 -8.234375 L 7.875 -8.234375 L 7.875 -3.1875 C 7.875 -2.695312 7.785156 -2.242188 7.609375 -1.828125 C 7.441406 -1.421875 7.203125 -1.066406 6.890625 -0.765625 C 6.585938 -0.460938 6.21875 -0.226562 5.78125 -0.0625 C 5.351562 0.101562 4.878906 0.1875 4.359375 0.1875 Z M 4.359375 0.1875 "/></g></g></g><g fill="#ffffff" fill-opacity="1"><g transform="translate(105.742374, 9.961604)"><g><path d="M 4.75 0.171875 C 4.257812 0.171875 3.796875 0.101562 3.359375 -0.03125 C 2.929688 -0.175781 2.535156 -0.378906 2.171875 -0.640625 C 1.804688 -0.910156 1.492188 -1.222656 1.234375 -1.578125 C 0.972656 -1.941406 0.769531 -2.335938 0.625 -2.765625 C 0.476562 -3.203125 0.40625 -3.65625 0.40625 -4.125 C 0.40625 -4.613281 0.476562 -5.070312 0.625 -5.5 C 0.769531 -5.925781 0.972656 -6.316406 1.234375 -6.671875 C 1.492188 -7.035156 1.804688 -7.347656 2.171875 -7.609375 C 2.535156 -7.867188 2.929688 -8.070312 3.359375 -8.21875 C 3.796875 -8.363281 4.257812 -8.4375 4.75 -8.4375 C 5.1875 -8.4375 5.617188 -8.367188 6.046875 -8.234375 C 6.472656 -8.109375 6.867188 -7.910156 7.234375 -7.640625 C 7.609375 -7.378906 7.925781 -7.046875 8.1875 -6.640625 C 8.445312 -6.242188 8.625 -5.769531 8.71875 -5.21875 L 7.1875 -5.21875 C 7.070312 -5.644531 6.894531 -5.988281 6.65625 -6.25 C 6.414062 -6.519531 6.128906 -6.71875 5.796875 -6.84375 C 5.460938 -6.976562 5.097656 -7.046875 4.703125 -7.046875 C 4.316406 -7.046875 3.953125 -6.976562 3.609375 -6.84375 C 3.273438 -6.707031 2.976562 -6.507812 2.71875 -6.25 C 2.46875 -5.988281 2.269531 -5.675781 2.125 -5.3125 C 1.976562 -4.957031 1.90625 -4.5625 1.90625 -4.125 C 1.90625 -3.675781 1.976562 -3.269531 2.125 -2.90625 C 2.269531 -2.550781 2.46875 -2.25 2.71875 -2 C 2.976562 -1.75 3.273438 -1.554688 3.609375 -1.421875 C 3.953125 -1.285156 4.316406 -1.21875 4.703125 -1.21875 C 5.097656 -1.21875 5.460938 -1.28125 5.796875 -1.40625 C 6.128906 -1.53125 6.414062 -1.726562 6.65625 -2 C 6.894531 -2.269531 7.066406 -2.617188 7.171875 -3.046875 L 8.71875 -3.046875 C 8.625 -2.492188 8.445312 -2.015625 8.1875 -1.609375 C 7.925781 -1.203125 7.613281 -0.867188 7.25 -0.609375 C 6.882812 -0.347656 6.484375 -0.148438 6.046875 -0.015625 C 5.617188 0.109375 5.1875 0.171875 4.75 0.171875 Z M 4.75 0.171875 "/></g></g></g><g fill="#ffffff" fill-opacity="1"><g transform="translate(114.3496, 9.961604)"><g><path d="M 4.21875 0 L 2.71875 0 L 2.71875 -6.890625 L 0.265625 -6.890625 L 0.265625 -8.234375 L 6.671875 -8.234375 L 6.671875 -6.890625 L 4.21875 -6.890625 Z M 4.21875 0 "/></g></g></g><g fill="#ffffff" fill-opacity="1"><g transform="translate(120.757909, 9.961604)"><g/></g></g><g fill="#ffffff" fill-opacity="1"><g transform="translate(123.259068, 9.961604)"><g><path d="M 6.203125 0 L 0.984375 0 L 0.984375 -8.234375 L 2.484375 -8.234375 L 2.484375 -1.34375 L 6.203125 -1.34375 Z M 6.203125 0 "/></g></g></g><g fill="#ffffff" fill-opacity="1"><g transform="translate(129.188831, 9.961604)"><g><path d="M 2.484375 0 L 0.984375 0 L 0.984375 -8.234375 L 2.484375 -8.234375 Z M 2.484375 0 "/></g></g></g><g fill="#ffffff" fill-opacity="1"><g transform="translate(132.13219, 9.961604)"><g><path d="M 2.484375 0 L 0.984375 0 L 0.984375 -8.234375 L 2.28125 -8.234375 L 6.765625 -2.46875 L 6.765625 -8.234375 L 8.265625 -8.234375 L 8.265625 0 L 6.984375 0 L 2.484375 -5.765625 Z M 2.484375 0 "/></g></g></g><g fill="#ffffff" fill-opacity="1"><g transform="translate(140.860568, 9.961604)"><g><path d="M 6.6875 0 L 0.984375 0 L 0.984375 -8.234375 L 6.625 -8.234375 L 6.625 -6.890625 L 2.484375 -6.890625 L 2.484375 -4.828125 L 6.0625 -4.828125 L 6.0625 -3.546875 L 2.484375 -3.546875 L 2.484375 -1.34375 L 6.6875 -1.34375 Z M 6.6875 0 "/></g></g></g><g fill="#ffffff" fill-opacity="1"><g transform="translate(147.414259, 9.961604)"><g/></g></g><g fill="#ffffff" fill-opacity="1"><g transform="translate(149.915418, 9.961604)"><g><path d="M 6.6875 0 L 0.984375 0 L 0.984375 -8.234375 L 6.625 -8.234375 L 6.625 -6.890625 L 2.484375 -6.890625 L 2.484375 -4.828125 L 6.0625 -4.828125 L 6.0625 -3.546875 L 2.484375 -3.546875 L 2.484375 -1.34375 L 6.6875 -1.34375 Z M 6.6875 0 "/></g></g></g><g fill="#ffffff" fill-opacity="1"><g transform="translate(156.46911, 9.961604)"><g><path d="M 2.484375 0 L 0.984375 0 L 0.984375 -8.234375 L 2.28125 -8.234375 L 6.765625 -2.46875 L 6.765625 -8.234375 L 8.265625 -8.234375 L 8.265625 0 L 6.984375 0 L 2.484375 -5.765625 Z M 2.484375 0 "/></g></g></g><g fill="#ffffff" fill-opacity="1"><g transform="translate(165.197488, 9.961604)"><g><path d="M 4.75 0.171875 C 4.269531 0.171875 3.8125 0.0976562 3.375 -0.046875 C 2.9375 -0.191406 2.535156 -0.394531 2.171875 -0.65625 C 1.816406 -0.914062 1.503906 -1.222656 1.234375 -1.578125 C 0.972656 -1.941406 0.769531 -2.335938 0.625 -2.765625 C 0.476562 -3.191406 0.40625 -3.644531 0.40625 -4.125 C 0.40625 -4.601562 0.476562 -5.054688 0.625 -5.484375 C 0.769531 -5.921875 0.972656 -6.316406 1.234375 -6.671875 C 1.503906 -7.035156 1.820312 -7.347656 2.1875 -7.609375 C 2.550781 -7.867188 2.953125 -8.070312 3.390625 -8.21875 C 3.828125 -8.363281 4.289062 -8.4375 4.78125 -8.4375 C 5.125 -8.4375 5.46875 -8.394531 5.8125 -8.3125 C 6.164062 -8.226562 6.503906 -8.101562 6.828125 -7.9375 C 7.148438 -7.78125 7.441406 -7.582031 7.703125 -7.34375 C 7.972656 -7.101562 8.203125 -6.832031 8.390625 -6.53125 C 8.578125 -6.226562 8.710938 -5.890625 8.796875 -5.515625 L 7.25 -5.515625 C 7.039062 -5.992188 6.710938 -6.367188 6.265625 -6.640625 C 5.828125 -6.910156 5.316406 -7.046875 4.734375 -7.046875 C 4.347656 -7.046875 3.984375 -6.976562 3.640625 -6.84375 C 3.296875 -6.707031 2.992188 -6.507812 2.734375 -6.25 C 2.472656 -5.988281 2.269531 -5.675781 2.125 -5.3125 C 1.976562 -4.957031 1.90625 -4.5625 1.90625 -4.125 C 1.90625 -3.675781 1.976562 -3.269531 2.125 -2.90625 C 2.269531 -2.550781 2.472656 -2.25 2.734375 -2 C 2.992188 -1.75 3.296875 -1.554688 3.640625 -1.421875 C 3.984375 -1.285156 4.347656 -1.21875 4.734375 -1.21875 C 5.222656 -1.21875 5.644531 -1.300781 6 -1.46875 C 6.363281 -1.632812 6.660156 -1.863281 6.890625 -2.15625 C 7.117188 -2.445312 7.269531 -2.785156 7.34375 -3.171875 L 4.671875 -3.171875 L 4.671875 -4.4375 L 8.984375 -4.4375 C 8.984375 -3.757812 8.890625 -3.140625 8.703125 -2.578125 C 8.515625 -2.015625 8.238281 -1.523438 7.875 -1.109375 C 7.507812 -0.703125 7.066406 -0.382812 6.546875 -0.15625 C 6.023438 0.0625 5.425781 0.171875 4.75 0.171875 Z M 4.75 0.171875 "/></g></g></g><g fill="#ffffff" fill-opacity="1"><g transform="translate(174.059133, 9.961604)"><g><path d="M 2.484375 0 L 0.984375 0 L 0.984375 -8.234375 L 2.484375 -8.234375 Z M 2.484375 0 "/></g></g></g><g fill="#ffffff" fill-opacity="1"><g transform="translate(177.002492, 9.961604)"><g><path d="M 2.484375 0 L 0.984375 0 L 0.984375 -8.234375 L 2.28125 -8.234375 L 6.765625 -2.46875 L 6.765625 -8.234375 L 8.265625 -8.234375 L 8.265625 0 L 6.984375 0 L 2.484375 -5.765625 Z M 2.484375 0 "/></g></g></g><g fill="#ffffff" fill-opacity="1"><g transform="translate(185.730869, 9.961604)"><g><path d="M 6.6875 0 L 0.984375 0 L 0.984375 -8.234375 L 6.625 -8.234375 L 6.625 -6.890625 L 2.484375 -6.890625 L 2.484375 -4.828125 L 6.0625 -4.828125 L 6.0625 -3.546875 L 2.484375 -3.546875 L 2.484375 -1.34375 L 6.6875 -1.34375 Z M 6.6875 0 "/></g></g></g><g fill="#ffffff" fill-opacity="1"><g transform="translate(192.284561, 9.961604)"><g><path d="M 6.6875 0 L 0.984375 0 L 0.984375 -8.234375 L 6.625 -8.234375 L 6.625 -6.890625 L 2.484375 -6.890625 L 2.484375 -4.828125 L 6.0625 -4.828125 L 6.0625 -3.546875 L 2.484375 -3.546875 L 2.484375 -1.34375 L 6.6875 -1.34375 Z M 6.6875 0 "/></g></g></g><g fill="#ffffff" fill-opacity="1"><g transform="translate(198.838264, 9.961604)"><g><path d="M 2.484375 0 L 0.984375 0 L 0.984375 -8.234375 L 4.53125 -8.234375 C 4.945312 -8.234375 5.328125 -8.171875 5.671875 -8.046875 C 6.023438 -7.921875 6.328125 -7.738281 6.578125 -7.5 C 6.835938 -7.257812 7.035156 -6.972656 7.171875 -6.640625 C 7.316406 -6.316406 7.390625 -5.957031 7.390625 -5.5625 C 7.390625 -5.164062 7.320312 -4.804688 7.1875 -4.484375 C 7.050781 -4.171875 6.859375 -3.898438 6.609375 -3.671875 C 6.359375 -3.441406 6.0625 -3.269531 5.71875 -3.15625 L 7.578125 0 L 5.859375 0 L 4.21875 -2.921875 C 4.164062 -2.921875 4.113281 -2.921875 4.0625 -2.921875 C 4.007812 -2.921875 3.957031 -2.921875 3.90625 -2.921875 L 2.484375 -2.921875 Z M 2.484375 -6.890625 L 2.484375 -4.1875 L 4.484375 -4.1875 C 4.742188 -4.195312 4.976562 -4.257812 5.1875 -4.375 C 5.40625 -4.488281 5.578125 -4.644531 5.703125 -4.84375 C 5.828125 -5.050781 5.890625 -5.289062 5.890625 -5.5625 C 5.890625 -5.8125 5.828125 -6.035156 5.703125 -6.234375 C 5.578125 -6.429688 5.40625 -6.585938 5.1875 -6.703125 C 4.976562 -6.828125 4.742188 -6.890625 4.484375 -6.890625 Z M 2.484375 -6.890625 "/></g></g></g><g fill="#ffffff" fill-opacity="1"><g transform="translate(206.161277, 9.961604)"><g><path d="M 2.484375 0 L 0.984375 0 L 0.984375 -8.234375 L 2.484375 -8.234375 Z M 2.484375 0 "/></g></g></g><g fill="#ffffff" fill-opacity="1"><g transform="translate(209.104624, 9.961604)"><g><path d="M 2.484375 0 L 0.984375 0 L 0.984375 -8.234375 L 2.28125 -8.234375 L 6.765625 -2.46875 L 6.765625 -8.234375 L 8.265625 -8.234375 L 8.265625 0 L 6.984375 0 L 2.484375 -5.765625 Z M 2.484375 0 "/></g></g></g><g fill="#ffffff" fill-opacity="1"><g transform="translate(217.833002, 9.961604)"><g><path d="M 4.75 0.171875 C 4.269531 0.171875 3.8125 0.0976562 3.375 -0.046875 C 2.9375 -0.191406 2.535156 -0.394531 2.171875 -0.65625 C 1.816406 -0.914062 1.503906 -1.222656 1.234375 -1.578125 C 0.972656 -1.941406 0.769531 -2.335938 0.625 -2.765625 C 0.476562 -3.191406 0.40625 -3.644531 0.40625 -4.125 C 0.40625 -4.601562 0.476562 -5.054688 0.625 -5.484375 C 0.769531 -5.921875 0.972656 -6.316406 1.234375 -6.671875 C 1.503906 -7.035156 1.820312 -7.347656 2.1875 -7.609375 C 2.550781 -7.867188 2.953125 -8.070312 3.390625 -8.21875 C 3.828125 -8.363281 4.289062 -8.4375 4.78125 -8.4375 C 5.125 -8.4375 5.46875 -8.394531 5.8125 -8.3125 C 6.164062 -8.226562 6.503906 -8.101562 6.828125 -7.9375 C 7.148438 -7.78125 7.441406 -7.582031 7.703125 -7.34375 C 7.972656 -7.101562 8.203125 -6.832031 8.390625 -6.53125 C 8.578125 -6.226562 8.710938 -5.890625 8.796875 -5.515625 L 7.25 -5.515625 C 7.039062 -5.992188 6.710938 -6.367188 6.265625 -6.640625 C 5.828125 -6.910156 5.316406 -7.046875 4.734375 -7.046875 C 4.347656 -7.046875 3.984375 -6.976562 3.640625 -6.84375 C 3.296875 -6.707031 2.992188 -6.507812 2.734375 -6.25 C 2.472656 -5.988281 2.269531 -5.675781 2.125 -5.3125 C 1.976562 -4.957031 1.90625 -4.5625 1.90625 -4.125 C 1.90625 -3.675781 1.976562 -3.269531 2.125 -2.90625 C 2.269531 -2.550781 2.472656 -2.25 2.734375 -2 C 2.992188 -1.75 3.296875 -1.554688 3.640625 -1.421875 C 3.984375 -1.285156 4.347656 -1.21875 4.734375 -1.21875 C 5.222656 -1.21875 5.644531 -1.300781 6 -1.46875 C 6.363281 -1.632812 6.660156 -1.863281 6.890625 -2.15625 C 7.117188 -2.445312 7.269531 -2.785156 7.34375 -3.171875 L 4.671875 -3.171875 L 4.671875 -4.4375 L 8.984375 -4.4375 C 8.984375 -3.757812 8.890625 -3.140625 8.703125 -2.578125 C 8.515625 -2.015625 8.238281 -1.523438 7.875 -1.109375 C 7.507812 -0.703125 7.066406 -0.382812 6.546875 -0.15625 C 6.023438 0.0625 5.425781 0.171875 4.75 0.171875 Z M 4.75 0.171875 "/></g></g></g><g fill="#ffffff" fill-opacity="1"><g transform="translate(226.694636, 9.961604)"><g/></g></g><g fill="#ffffff" fill-opacity="1"><g transform="translate(229.195818, 9.961604)"><g><path d="M 4.21875 0 L 2.71875 0 L 2.71875 -6.890625 L 0.265625 -6.890625 L 0.265625 -8.234375 L 6.671875 -8.234375 L 6.671875 -6.890625 L 4.21875 -6.890625 Z M 4.21875 0 "/></g></g></g><g fill="#ffffff" fill-opacity="1"><g transform="translate(235.604115, 9.961604)"><g><path d="M 4.84375 0.171875 C 4.351562 0.171875 3.882812 0.101562 3.4375 -0.03125 C 3 -0.175781 2.59375 -0.378906 2.21875 -0.640625 C 1.851562 -0.910156 1.53125 -1.222656 1.25 -1.578125 C 0.976562 -1.941406 0.769531 -2.335938 0.625 -2.765625 C 0.476562 -3.203125 0.40625 -3.65625 0.40625 -4.125 C 0.40625 -4.613281 0.476562 -5.070312 0.625 -5.5 C 0.769531 -5.925781 0.976562 -6.316406 1.25 -6.671875 C 1.53125 -7.035156 1.851562 -7.347656 2.21875 -7.609375 C 2.59375 -7.867188 3 -8.070312 3.4375 -8.21875 C 3.882812 -8.363281 4.351562 -8.4375 4.84375 -8.4375 C 5.332031 -8.4375 5.796875 -8.363281 6.234375 -8.21875 C 6.679688 -8.070312 7.085938 -7.867188 7.453125 -7.609375 C 7.828125 -7.347656 8.148438 -7.035156 8.421875 -6.671875 C 8.703125 -6.316406 8.914062 -5.925781 9.0625 -5.5 C 9.207031 -5.070312 9.28125 -4.613281 9.28125 -4.125 C 9.28125 -3.65625 9.207031 -3.203125 9.0625 -2.765625 C 8.914062 -2.335938 8.703125 -1.941406 8.421875 -1.578125 C 8.148438 -1.222656 7.828125 -0.910156 7.453125 -0.640625 C 7.085938 -0.378906 6.679688 -0.175781 6.234375 -0.03125 C 5.796875 0.101562 5.332031 0.171875 4.84375 0.171875 Z M 4.84375 -1.21875 C 5.25 -1.21875 5.628906 -1.285156 5.984375 -1.421875 C 6.335938 -1.566406 6.648438 -1.769531 6.921875 -2.03125 C 7.191406 -2.300781 7.398438 -2.613281 7.546875 -2.96875 C 7.703125 -3.320312 7.78125 -3.707031 7.78125 -4.125 C 7.78125 -4.539062 7.703125 -4.925781 7.546875 -5.28125 C 7.398438 -5.644531 7.191406 -5.957031 6.921875 -6.21875 C 6.648438 -6.476562 6.335938 -6.679688 5.984375 -6.828125 C 5.628906 -6.972656 5.25 -7.046875 4.84375 -7.046875 C 4.4375 -7.046875 4.054688 -6.972656 3.703125 -6.828125 C 3.347656 -6.679688 3.035156 -6.476562 2.765625 -6.21875 C 2.492188 -5.957031 2.28125 -5.644531 2.125 -5.28125 C 1.976562 -4.925781 1.90625 -4.539062 1.90625 -4.125 C 1.90625 -3.707031 1.976562 -3.320312 2.125 -2.96875 C 2.28125 -2.613281 2.492188 -2.300781 2.765625 -2.03125 C 3.035156 -1.769531 3.347656 -1.566406 3.703125 -1.421875 C 4.054688 -1.285156 4.4375 -1.21875 4.84375 -1.21875 Z M 4.84375 -1.21875 "/></g></g></g><g fill="#ffffff" fill-opacity="1"><g transform="translate(244.768641, 9.961604)"><g><path d="M 4.84375 0.171875 C 4.351562 0.171875 3.882812 0.101562 3.4375 -0.03125 C 3 -0.175781 2.59375 -0.378906 2.21875 -0.640625 C 1.851562 -0.910156 1.53125 -1.222656 1.25 -1.578125 C 0.976562 -1.941406 0.769531 -2.335938 0.625 -2.765625 C 0.476562 -3.203125 0.40625 -3.65625 0.40625 -4.125 C 0.40625 -4.613281 0.476562 -5.070312 0.625 -5.5 C 0.769531 -5.925781 0.976562 -6.316406 1.25 -6.671875 C 1.53125 -7.035156 1.851562 -7.347656 2.21875 -7.609375 C 2.59375 -7.867188 3 -8.070312 3.4375 -8.21875 C 3.882812 -8.363281 4.351562 -8.4375 4.84375 -8.4375 C 5.332031 -8.4375 5.796875 -8.363281 6.234375 -8.21875 C 6.679688 -8.070312 7.085938 -7.867188 7.453125 -7.609375 C 7.828125 -7.347656 8.148438 -7.035156 8.421875 -6.671875 C 8.703125 -6.316406 8.914062 -5.925781 9.0625 -5.5 C 9.207031 -5.070312 9.28125 -4.613281 9.28125 -4.125 C 9.28125 -3.65625 9.207031 -3.203125 9.0625 -2.765625 C 8.914062 -2.335938 8.703125 -1.941406 8.421875 -1.578125 C 8.148438 -1.222656 7.828125 -0.910156 7.453125 -0.640625 C 7.085938 -0.378906 6.679688 -0.175781 6.234375 -0.03125 C 5.796875 0.101562 5.332031 0.171875 4.84375 0.171875 Z M 4.84375 -1.21875 C 5.25 -1.21875 5.628906 -1.285156 5.984375 -1.421875 C 6.335938 -1.566406 6.648438 -1.769531 6.921875 -2.03125 C 7.191406 -2.300781 7.398438 -2.613281 7.546875 -2.96875 C 7.703125 -3.320312 7.78125 -3.707031 7.78125 -4.125 C 7.78125 -4.539062 7.703125 -4.925781 7.546875 -5.28125 C 7.398438 -5.644531 7.191406 -5.957031 6.921875 -6.21875 C 6.648438 -6.476562 6.335938 -6.679688 5.984375 -6.828125 C 5.628906 -6.972656 5.25 -7.046875 4.84375 -7.046875 C 4.4375 -7.046875 4.054688 -6.972656 3.703125 -6.828125 C 3.347656 -6.679688 3.035156 -6.476562 2.765625 -6.21875 C 2.492188 -5.957031 2.28125 -5.644531 2.125 -5.28125 C 1.976562 -4.925781 1.90625 -4.539062 1.90625 -4.125 C 1.90625 -3.707031 1.976562 -3.320312 2.125 -2.96875 C 2.28125 -2.613281 2.492188 -2.300781 2.765625 -2.03125 C 3.035156 -1.769531 3.347656 -1.566406 3.703125 -1.421875 C 4.054688 -1.285156 4.4375 -1.21875 4.84375 -1.21875 Z M 4.84375 -1.21875 "/></g></g></g><g fill="#ffffff" fill-opacity="1"><g transform="translate(253.933167, 9.961604)"><g><path d="M 6.203125 0 L 0.984375 0 L 0.984375 -8.234375 L 2.484375 -8.234375 L 2.484375 -1.34375 L 6.203125 -1.34375 Z M 6.203125 0 "/></g></g></g><g fill="#ffffff" fill-opacity="1"><g transform="translate(259.862919, 9.961604)"><g><path d="M 7.6875 -8.234375 L 4.75 -4.59375 L 8.109375 0 L 6.3125 0 L 3.765625 -3.5 L 2.484375 -1.90625 L 2.484375 0 L 0.984375 0 L 0.984375 -8.234375 L 2.484375 -8.234375 L 2.484375 -3.90625 L 5.921875 -8.234375 Z M 7.6875 -8.234375 "/></g></g></g><g fill="#ffffff" fill-opacity="1"><g transform="translate(267.531222, 9.961604)"><g><path d="M 2.484375 0 L 0.984375 0 L 0.984375 -8.234375 L 2.484375 -8.234375 Z M 2.484375 0 "/></g></g></g><g clip-path="url(#8640150dfa)"><g fill="#ffffff" fill-opacity="1"><g transform="translate(270.474569, 9.961604)"><g><path d="M 4.21875 0 L 2.71875 0 L 2.71875 -6.890625 L 0.265625 -6.890625 L 0.265625 -8.234375 L 6.671875 -8.234375 L 6.671875 -6.890625 L 4.21875 -6.890625 Z M 4.21875 0 "/></g></g></g></g></g></g></g><g transform="matrix(1, 0, 0, 1, 286, 4)"><g clip-path="url(#1838ca48f9)"><g fill="#ffffff" fill-opacity="1"><g transform="translate(0.363825, 14.776662)"><g><path d="M 4.953125 0.296875 C 4.222656 0.296875 3.585938 0.195312 3.046875 0 C 2.515625 -0.1875 2.070312 -0.441406 1.71875 -0.765625 C 1.363281 -1.097656 1.097656 -1.46875 0.921875 -1.875 C 0.753906 -2.289062 0.671875 -2.71875 0.671875 -3.15625 L 2.921875 -3.15625 C 2.941406 -2.695312 3.117188 -2.316406 3.453125 -2.015625 C 3.796875 -1.710938 4.300781 -1.5625 4.96875 -1.5625 C 5.570312 -1.5625 6.015625 -1.675781 6.296875 -1.90625 C 6.585938 -2.132812 6.734375 -2.4375 6.734375 -2.8125 C 6.734375 -3.09375 6.648438 -3.3125 6.484375 -3.46875 C 6.328125 -3.632812 6.09375 -3.765625 5.78125 -3.859375 C 5.46875 -3.953125 5.085938 -4.03125 4.640625 -4.09375 C 4.160156 -4.15625 3.707031 -4.253906 3.28125 -4.390625 C 2.851562 -4.523438 2.472656 -4.710938 2.140625 -4.953125 C 1.816406 -5.191406 1.554688 -5.492188 1.359375 -5.859375 C 1.171875 -6.222656 1.078125 -6.660156 1.078125 -7.171875 C 1.078125 -7.785156 1.21875 -8.320312 1.5 -8.78125 C 1.789062 -9.238281 2.210938 -9.59375 2.765625 -9.84375 C 3.328125 -10.101562 4.015625 -10.234375 4.828125 -10.234375 C 5.617188 -10.234375 6.316406 -10.097656 6.921875 -9.828125 C 7.523438 -9.566406 7.992188 -9.195312 8.328125 -8.71875 C 8.660156 -8.238281 8.828125 -7.679688 8.828125 -7.046875 L 6.546875 -7.0625 C 6.515625 -7.425781 6.351562 -7.726562 6.0625 -7.96875 C 5.78125 -8.207031 5.367188 -8.328125 4.828125 -8.328125 C 4.328125 -8.328125 3.960938 -8.21875 3.734375 -8 C 3.503906 -7.78125 3.390625 -7.519531 3.390625 -7.21875 C 3.390625 -6.976562 3.441406 -6.78125 3.546875 -6.625 C 3.660156 -6.476562 3.863281 -6.351562 4.15625 -6.25 C 4.457031 -6.144531 4.894531 -6.050781 5.46875 -5.96875 C 5.976562 -5.882812 6.453125 -5.78125 6.890625 -5.65625 C 7.335938 -5.53125 7.726562 -5.351562 8.0625 -5.125 C 8.394531 -4.90625 8.65625 -4.617188 8.84375 -4.265625 C 9.03125 -3.910156 9.125 -3.472656 9.125 -2.953125 C 9.125 -2.222656 8.941406 -1.617188 8.578125 -1.140625 C 8.210938 -0.660156 7.710938 -0.300781 7.078125 -0.0625 C 6.453125 0.175781 5.742188 0.296875 4.953125 0.296875 Z M 4.953125 0.296875 "/></g></g></g><g clip-path="url(#b2412efdda)"><g fill="#ffffff" fill-opacity="1"><g transform="translate(9.216045, 14.776662)"><g><path d="M 3.71875 3.390625 L 1.375 3.390625 L 1.375 -9.9375 L 3.59375 -9.9375 L 3.59375 -8.265625 C 3.957031 -8.859375 4.4375 -9.332031 5.03125 -9.6875 C 5.632812 -10.050781 6.296875 -10.234375 7.015625 -10.234375 C 7.722656 -10.234375 8.367188 -10.09375 8.953125 -9.8125 C 9.546875 -9.539062 10.054688 -9.164062 10.484375 -8.6875 C 10.921875 -8.207031 11.253906 -7.648438 11.484375 -7.015625 C 11.722656 -6.378906 11.84375 -5.695312 11.84375 -4.96875 C 11.84375 -4.238281 11.722656 -3.554688 11.484375 -2.921875 C 11.253906 -2.285156 10.921875 -1.722656 10.484375 -1.234375 C 10.046875 -0.753906 9.535156 -0.378906 8.953125 -0.109375 C 8.367188 0.160156 7.726562 0.296875 7.03125 0.296875 C 6.550781 0.296875 6.09375 0.21875 5.65625 0.0625 C 5.226562 -0.09375 4.84375 -0.3125 4.5 -0.59375 C 4.164062 -0.882812 3.882812 -1.222656 3.65625 -1.609375 L 3.71875 -0.453125 Z M 6.609375 -1.859375 C 7.140625 -1.859375 7.625 -1.984375 8.0625 -2.234375 C 8.507812 -2.484375 8.863281 -2.84375 9.125 -3.3125 C 9.394531 -3.78125 9.53125 -4.332031 9.53125 -4.96875 C 9.53125 -5.59375 9.394531 -6.132812 9.125 -6.59375 C 8.863281 -7.0625 8.515625 -7.425781 8.078125 -7.6875 C 7.640625 -7.945312 7.148438 -8.078125 6.609375 -8.078125 C 6.203125 -8.078125 5.820312 -7.992188 5.46875 -7.828125 C 5.113281 -7.671875 4.800781 -7.453125 4.53125 -7.171875 C 4.269531 -6.890625 4.0625 -6.5625 3.90625 -6.1875 C 3.757812 -5.8125 3.6875 -5.40625 3.6875 -4.96875 C 3.6875 -4.519531 3.757812 -4.101562 3.90625 -3.71875 C 4.0625 -3.34375 4.273438 -3.015625 4.546875 -2.734375 C 4.816406 -2.453125 5.128906 -2.234375 5.484375 -2.078125 C 5.835938 -1.929688 6.210938 -1.859375 6.609375 -1.859375 Z M 6.609375 -1.859375 "/></g></g></g></g><g fill="#ffffff" fill-opacity="1"><g transform="translate(20.900056, 14.776662)"><g><path d="M 3.71875 0 L 1.375 0 L 1.375 -13.625 L 3.71875 -13.625 Z M 3.71875 0 "/></g></g></g><g fill="#ffffff" fill-opacity="1"><g transform="translate(25.142158, 14.776662)"><g><path d="M 10.828125 -5.140625 C 10.828125 -5.015625 10.820312 -4.894531 10.8125 -4.78125 C 10.8125 -4.675781 10.800781 -4.53125 10.78125 -4.34375 L 3.015625 -4.34375 C 3.097656 -3.800781 3.269531 -3.335938 3.53125 -2.953125 C 3.789062 -2.578125 4.113281 -2.285156 4.5 -2.078125 C 4.882812 -1.878906 5.304688 -1.78125 5.765625 -1.78125 C 6.359375 -1.78125 6.835938 -1.898438 7.203125 -2.140625 C 7.578125 -2.378906 7.847656 -2.707031 8.015625 -3.125 L 10.5625 -3.125 C 10.4375 -2.675781 10.234375 -2.242188 9.953125 -1.828125 C 9.679688 -1.421875 9.34375 -1.054688 8.9375 -0.734375 C 8.53125 -0.421875 8.0625 -0.171875 7.53125 0.015625 C 7.007812 0.203125 6.4375 0.296875 5.8125 0.296875 C 5.070312 0.296875 4.382812 0.160156 3.75 -0.109375 C 3.125 -0.378906 2.582031 -0.753906 2.125 -1.234375 C 1.664062 -1.722656 1.304688 -2.285156 1.046875 -2.921875 C 0.796875 -3.566406 0.671875 -4.25 0.671875 -4.96875 C 0.671875 -5.695312 0.796875 -6.378906 1.046875 -7.015625 C 1.304688 -7.648438 1.664062 -8.207031 2.125 -8.6875 C 2.582031 -9.175781 3.125 -9.554688 3.75 -9.828125 C 4.382812 -10.097656 5.070312 -10.234375 5.8125 -10.234375 C 6.5625 -10.234375 7.242188 -10.097656 7.859375 -9.828125 C 8.472656 -9.554688 9 -9.179688 9.4375 -8.703125 C 9.882812 -8.234375 10.226562 -7.691406 10.46875 -7.078125 C 10.707031 -6.472656 10.828125 -5.828125 10.828125 -5.140625 Z M 3.109375 -6.15625 L 8.4375 -6.15625 C 8.40625 -6.53125 8.265625 -6.867188 8.015625 -7.171875 C 7.773438 -7.484375 7.460938 -7.734375 7.078125 -7.921875 C 6.691406 -8.109375 6.269531 -8.203125 5.8125 -8.203125 C 5.414062 -8.203125 5.035156 -8.128906 4.671875 -7.984375 C 4.316406 -7.835938 4 -7.613281 3.71875 -7.3125 C 3.445312 -7.007812 3.242188 -6.625 3.109375 -6.15625 Z M 3.109375 -6.15625 "/></g></g></g><g fill="#ffffff" fill-opacity="1"><g transform="translate(35.666391, 14.776662)"><g><path d="M 3.71875 0 L 1.375 0 L 1.375 -9.9375 L 3.59375 -9.9375 L 3.59375 -8.390625 C 3.789062 -8.753906 4.054688 -9.070312 4.390625 -9.34375 C 4.722656 -9.625 5.109375 -9.84375 5.546875 -10 C 5.992188 -10.15625 6.472656 -10.234375 6.984375 -10.234375 C 8.316406 -10.234375 9.316406 -9.804688 9.984375 -8.953125 C 10.648438 -8.109375 10.984375 -6.910156 10.984375 -5.359375 L 10.984375 0 L 8.640625 0 L 8.640625 -5.3125 C 8.640625 -6.289062 8.429688 -6.992188 8.015625 -7.421875 C 7.609375 -7.859375 7.050781 -8.078125 6.34375 -8.078125 C 5.882812 -8.078125 5.453125 -7.960938 5.046875 -7.734375 C 4.648438 -7.503906 4.328125 -7.164062 4.078125 -6.71875 C 3.835938 -6.269531 3.71875 -5.722656 3.71875 -5.078125 Z M 3.71875 0 "/></g></g></g><g fill="#ffffff" fill-opacity="1"><g transform="translate(47.108782, 14.776662)"><g><path d="M 7.484375 0 L 5.46875 0 C 5.164062 0 4.859375 -0.0234375 4.546875 -0.078125 C 4.234375 -0.140625 3.9375 -0.242188 3.65625 -0.390625 C 3.375 -0.535156 3.117188 -0.75 2.890625 -1.03125 C 2.671875 -1.3125 2.492188 -1.675781 2.359375 -2.125 C 2.234375 -2.570312 2.171875 -3.125 2.171875 -3.78125 L 2.171875 -7.921875 L 0.109375 -7.921875 L 0.109375 -9.9375 L 2.171875 -9.9375 L 2.171875 -12.84375 L 4.5 -12.859375 L 4.5 -9.9375 L 7.484375 -9.9375 L 7.484375 -7.921875 L 4.5 -7.921875 L 4.5 -3.671875 C 4.5 -3.210938 4.566406 -2.851562 4.703125 -2.59375 C 4.835938 -2.34375 5.015625 -2.171875 5.234375 -2.078125 C 5.460938 -1.984375 5.695312 -1.9375 5.9375 -1.9375 L 7.484375 -1.9375 Z M 7.484375 0 "/></g></g></g><g fill="#ffffff" fill-opacity="1"><g transform="translate(54.279323, 14.776662)"><g><path d="M 2.59375 0.234375 C 2.320312 0.234375 2.082031 0.175781 1.875 0.0625 C 1.675781 -0.0507812 1.519531 -0.207031 1.40625 -0.40625 C 1.289062 -0.601562 1.234375 -0.816406 1.234375 -1.046875 C 1.234375 -1.273438 1.289062 -1.488281 1.40625 -1.6875 C 1.519531 -1.882812 1.675781 -2.039062 1.875 -2.15625 C 2.082031 -2.269531 2.328125 -2.328125 2.609375 -2.328125 C 2.890625 -2.328125 3.128906 -2.269531 3.328125 -2.15625 C 3.535156 -2.039062 3.695312 -1.882812 3.8125 -1.6875 C 3.925781 -1.488281 3.984375 -1.273438 3.984375 -1.046875 C 3.984375 -0.691406 3.859375 -0.390625 3.609375 -0.140625 C 3.359375 0.109375 3.019531 0.234375 2.59375 0.234375 Z M 2.59375 0.234375 "/></g></g></g><g clip-path="url(#4194d5b0a1)"><g fill="#ffffff" fill-opacity="1"><g transform="translate(58.676063, 14.776662)"><g><path d="M 2.515625 -11.484375 C 2.066406 -11.484375 1.710938 -11.613281 1.453125 -11.875 C 1.203125 -12.132812 1.078125 -12.453125 1.078125 -12.828125 C 1.078125 -13.191406 1.203125 -13.503906 1.453125 -13.765625 C 1.710938 -14.023438 2.070312 -14.15625 2.53125 -14.15625 C 3 -14.15625 3.359375 -14.023438 3.609375 -13.765625 C 3.867188 -13.503906 4 -13.191406 4 -12.828125 C 4 -12.453125 3.867188 -12.132812 3.609375 -11.875 C 3.359375 -11.613281 2.992188 -11.484375 2.515625 -11.484375 Z M 3.71875 0 L 1.375 0 L 1.375 -9.9375 L 3.71875 -9.9375 Z M 3.71875 0 "/></g></g></g></g><g clip-path="url(#3cf74cad01)"><g fill="#ffffff" fill-opacity="1"><g transform="translate(62.918165, 14.776662)"><g><path d="M 5.890625 0.296875 C 5.128906 0.296875 4.429688 0.160156 3.796875 -0.109375 C 3.160156 -0.378906 2.609375 -0.753906 2.140625 -1.234375 C 1.671875 -1.722656 1.304688 -2.285156 1.046875 -2.921875 C 0.796875 -3.554688 0.671875 -4.238281 0.671875 -4.96875 C 0.671875 -5.695312 0.796875 -6.378906 1.046875 -7.015625 C 1.304688 -7.648438 1.671875 -8.207031 2.140625 -8.6875 C 2.609375 -9.175781 3.160156 -9.554688 3.796875 -9.828125 C 4.429688 -10.097656 5.128906 -10.234375 5.890625 -10.234375 C 6.660156 -10.234375 7.363281 -10.097656 8 -9.828125 C 8.632812 -9.554688 9.1875 -9.175781 9.65625 -8.6875 C 10.132812 -8.207031 10.5 -7.648438 10.75 -7.015625 C 11.007812 -6.378906 11.140625 -5.695312 11.140625 -4.96875 C 11.140625 -4.226562 11.007812 -3.539062 10.75 -2.90625 C 10.5 -2.28125 10.132812 -1.722656 9.65625 -1.234375 C 9.1875 -0.753906 8.628906 -0.378906 7.984375 -0.109375 C 7.347656 0.160156 6.648438 0.296875 5.890625 0.296875 Z M 5.90625 -1.875 C 6.46875 -1.875 6.96875 -2.003906 7.40625 -2.265625 C 7.84375 -2.535156 8.1875 -2.898438 8.4375 -3.359375 C 8.695312 -3.828125 8.828125 -4.363281 8.828125 -4.96875 C 8.828125 -5.570312 8.695312 -6.101562 8.4375 -6.5625 C 8.1875 -7.03125 7.84375 -7.398438 7.40625 -7.671875 C 6.96875 -7.941406 6.46875 -8.078125 5.90625 -8.078125 C 5.351562 -8.078125 4.851562 -7.941406 4.40625 -7.671875 C 3.96875 -7.398438 3.617188 -7.03125 3.359375 -6.5625 C 3.109375 -6.101562 2.984375 -5.570312 2.984375 -4.96875 C 2.984375 -4.363281 3.109375 -3.828125 3.359375 -3.359375 C 3.617188 -2.898438 3.96875 -2.535156 4.40625 -2.265625 C 4.851562 -2.003906 5.351562 -1.875 5.90625 -1.875 Z M 5.90625 -1.875 "/></g></g></g></g></g></g><g clip-path="url(#40db266563)"><g clip-path="url(#3197dc960a)"><g clip-path="url(#d21dc0d770)"><path stroke-linecap="butt" transform="matrix(0.533105, -0.533105, 0.533105, 0.533105, 0.641336, 97.331141)" fill="none" stroke-linejoin="miter" d="M -0.00150129 0.000168158 L 44.219052 0.000168158 L 44.219052 44.220721 L -0.00150129 44.220721 Z M -0.00150129 0.000168158 " stroke="#fece3e" stroke-width="7.925735" stroke-opacity="1" stroke-miterlimit="4"/></g></g></g><g clip-path="url(#a2b9b92f88)"><g clip-path="url(#cb2f572d3b)"><g transform="matrix(1, 0, 0, 1, 25, 48)"><g clip-path="url(#1cccf0ddd9)"><g clip-path="url(#a47536e591)"><g clip-path="url(#fe76a19cf8)"><path fill="#fece3e" d="M 0.730469 24.242188 L 24.308594 0.664062 L 47.890625 24.242188 L 24.308594 47.824219 Z M 0.730469 24.242188 " fill-opacity="1" fill-rule="nonzero"/></g></g></g></g></g></g><g clip-path="url(#0f1adc02c1)"><g clip-path="url(#2f046400f0)"><g clip-path="url(#f07e7b4dd7)"><path stroke-linecap="butt" transform="matrix(0.533105, -0.533105, 0.533105, 0.533105, 27.237097, 23.575255)" fill="none" stroke-linejoin="miter" d="M 0.00208313 0.000138548 L 44.215309 0.000138548 L 44.218973 44.217028 L -0.00158055 44.217028 Z M 0.00208313 0.000138548 " stroke="#105b99" stroke-width="7.925735" stroke-opacity="1" stroke-miterlimit="4"/></g></g></g><g clip-path="url(#b26939d489)"><g clip-path="url(#0c134eaf4a)"><g transform="matrix(1, 0, 0, 1, 2, 25)"><g clip-path="url(#c7f67c1a42)"><g clip-path="url(#00dd7e34c4)"><g clip-path="url(#26d66601b6)"><path fill="#105b99" d="M 0.148438 23.664062 L 23.730469 0.0820312 L 47.308594 23.664062 L 23.730469 47.242188 Z M 0.148438 23.664062 " fill-opacity="1" fill-rule="nonzero"/></g></g></g></g></g></g></g></g></g></svg>